# xmcd
#
# Track frame offsets: 
#        150
#        23238
#        44064
#        69562
#        89589
#        110019
#        129433
#        149738
#        170254
#        191079
#        210495
#        233228
#
# Disc length: 3422 seconds
#
# Revision: 3
# Processed by: cddbd v1.5.2PL0 Copyright (c) Steve Scherf et al.
# Submitted via: ExactAudioCopy v1.0b3
#
DISCID=b60d5c0c
DTITLE=Various Artist - Salsa en la Calle Ocho 2003
DYEAR=2003
DGENRE=Salsa
TTITLE0=Domingo Quinonez - A Que No Te Atreves
TTITLE1=Tito Rojas - Te Lo Pido Senor
TTITLE2=Williy Chirino - Tu Eres Mejor
TTITLE3=Puerto Rican Power - Cuando Faltas Tu
TTITLE4=Dominic - Amor Amor
TTITLE5=Frankie Negron - Por Tu Placer
TTITLE6=Charlie Cruze - Un Chin Chin
TTITLE7=Raulin Rosendo - Vuela Mujer
TTITLE8=Giro - A Cada Sol
TTITLE9=Michael Stuart - Mi Princesa
TTITLE10=Fruko Y Sus Tesos - Tabaco Y Ron
TTITLE11=Miael de Vante - Hotel California
EXTD=YEAR: 2003
EXTT0=
EXTT1=
EXTT2=
EXTT3=
EXTT4=
EXTT5=
EXTT6=
EXTT7=
EXTT8=
EXTT9=
EXTT10=
EXTT11=
PLAYORDER=
